<svg width="152" height="22" viewBox="0 0 152 22" fill="none" xmlns="http://www.w3.org/2000/svg">
<path d="M0.8 21L8.704 0.391998H15.072L22.976 21H16.704L14.976 16.616H8.768L7.072 21H0.8ZM9.568 12.296H14.176L11.872 6.248L9.568 12.296ZM31.1413 21.32C29.8399 21.32 28.6133 21.224 27.4613 21.032C26.3306 20.8613 25.4346 20.6373 24.7733 20.36V16.04C25.5199 16.3813 26.4053 16.648 27.4293 16.84C28.4746 17.032 29.3599 17.128 30.0853 17.128C30.8533 17.128 31.4293 17.1067 31.8133 17.064C32.2186 17.0213 32.4213 16.84 32.4213 16.52C32.4213 16.1573 32.0693 15.88 31.3653 15.688C30.6613 15.496 29.7759 15.2187 28.7093 14.856C27.3226 14.3653 26.2879 13.7893 25.6053 13.128C24.9226 12.4667 24.5813 11.5067 24.5813 10.248C24.5813 8.73333 25.1786 7.57067 26.3733 6.76C27.5679 5.928 29.4453 5.512 32.0052 5.512C32.9866 5.512 33.9999 5.58667 35.0453 5.736C36.0906 5.88533 36.9119 6.056 37.5093 6.248V10.472C36.8693 10.1947 36.1653 9.992 35.3973 9.864C34.6506 9.736 33.9679 9.672 33.3493 9.672C32.6666 9.672 32.0586 9.704 31.5253 9.768C30.9919 9.832 30.7253 10.0133 30.7253 10.312C30.7253 10.6533 31.0239 10.8987 31.6213 11.048C32.2399 11.1973 33.0613 11.432 34.0853 11.752C35.2373 12.0933 36.1333 12.4667 36.7733 12.872C37.4346 13.2773 37.8933 13.768 38.1493 14.344C38.4266 14.92 38.5653 15.6347 38.5653 16.488C38.5653 18.024 37.9359 19.2187 36.6773 20.072C35.4399 20.904 33.5946 21.32 31.1413 21.32ZM46.8423 21.32C44.8156 21.32 43.3436 20.808 42.4263 19.784C41.5089 18.76 41.0503 17.3733 41.0503 15.624V10.28H39.0663V5.832H41.0503V2.728L47.0663 1.288V5.832H50.5543L50.3303 10.28H47.0663V15.176C47.0663 15.816 47.2263 16.2747 47.5463 16.552C47.8663 16.808 48.3569 16.936 49.0183 16.936C49.6369 16.936 50.2663 16.8293 50.9063 16.616V20.616C49.7756 21.0853 48.4209 21.32 46.8423 21.32ZM52.5025 21V5.832H58.2945L58.4545 7.048C59.0732 6.68533 59.8625 6.35467 60.8225 6.056C61.7825 5.75733 62.7532 5.576 63.7345 5.512V9.992C63.1798 10.0347 62.5718 10.1093 61.9105 10.216C61.2705 10.3227 60.6412 10.4613 60.0225 10.632C59.4252 10.7813 58.9238 10.952 58.5185 11.144V21H52.5025ZM73.039 21.32C70.0097 21.32 67.7697 20.648 66.319 19.304C64.8897 17.96 64.175 15.9973 64.175 13.416C64.175 10.856 64.9003 8.904 66.351 7.56C67.8017 6.19467 70.031 5.512 73.039 5.512C76.0683 5.512 78.3083 6.19467 79.759 7.56C81.231 8.904 81.967 10.856 81.967 13.416C81.967 15.9973 81.2417 17.96 79.791 19.304C78.3403 20.648 76.0897 21.32 73.039 21.32ZM73.039 16.936C74.0203 16.936 74.7243 16.6587 75.151 16.104C75.599 15.5493 75.823 14.6533 75.823 13.416C75.823 12.2 75.599 11.3147 75.151 10.76C74.7243 10.184 74.0203 9.896 73.039 9.896C72.079 9.896 71.3857 10.184 70.959 10.76C70.5323 11.3147 70.319 12.2 70.319 13.416C70.319 14.6533 70.5323 15.5493 70.959 16.104C71.3857 16.6587 72.079 16.936 73.039 16.936ZM84.2213 21V5.832H89.8533L90.0133 6.984C90.5893 6.6 91.3466 6.25867 92.2853 5.96C93.2453 5.66133 94.2693 5.512 95.3573 5.512C97.2559 5.512 98.6426 5.98133 99.5173 6.92C100.392 7.85867 100.829 9.30933 100.829 11.272V21H94.8133V11.88C94.8133 11.1973 94.6639 10.7067 94.3653 10.408C94.0666 10.1093 93.5439 9.96 92.7973 9.96C92.3493 9.96 91.8799 10.0667 91.3893 10.28C90.9199 10.4933 90.5359 10.7493 90.2373 11.048V21H84.2213ZM107.801 21.32C106.841 21.32 105.945 21.1493 105.113 20.808C104.302 20.4667 103.652 19.9333 103.161 19.208C102.67 18.4827 102.425 17.5653 102.425 16.456C102.425 14.856 102.958 13.6187 104.025 12.744C105.092 11.848 106.702 11.4 108.857 11.4H112.793V11.112C112.793 10.5147 112.548 10.0773 112.057 9.8C111.566 9.52267 110.702 9.384 109.465 9.384C107.716 9.384 105.988 9.65067 104.281 10.184V6.568C105.049 6.26933 106.009 6.024 107.161 5.832C108.313 5.61867 109.486 5.512 110.681 5.512C113.092 5.512 115.001 6.00267 116.409 6.984C117.817 7.96533 118.521 9.52267 118.521 11.656V21H113.273L112.985 19.784C112.452 20.2533 111.758 20.6267 110.905 20.904C110.073 21.1813 109.038 21.32 107.801 21.32ZM109.849 17.8C110.532 17.8 111.108 17.6827 111.577 17.448C112.068 17.2133 112.473 16.9253 112.793 16.584V14.696H109.881C108.558 14.696 107.897 15.2187 107.897 16.264C107.897 17.288 108.548 17.8 109.849 17.8ZM126.757 21.32C124.986 21.32 123.599 20.8187 122.597 19.816C121.594 18.8133 121.093 17.3413 121.093 15.4V5.832H127.109V14.92C127.109 16.2427 127.781 16.904 129.125 16.904C129.615 16.904 130.095 16.7973 130.565 16.584C131.034 16.3707 131.407 16.104 131.685 15.784V5.832H137.701V21H132.069L131.909 19.848C131.311 20.2747 130.575 20.6267 129.701 20.904C128.847 21.1813 127.866 21.32 126.757 21.32ZM147.061 21.32C145.034 21.32 143.562 20.808 142.645 19.784C141.728 18.76 141.269 17.3733 141.269 15.624V10.28H139.285V5.832H141.269V2.728L147.285 1.288V5.832H150.773L150.549 10.28H147.285V15.176C147.285 15.816 147.445 16.2747 147.765 16.552C148.085 16.808 148.576 16.936 149.237 16.936C149.856 16.936 150.485 16.8293 151.125 16.616V20.616C149.994 21.0853 148.64 21.32 147.061 21.32Z" fill="#42F98B"/>
</svg>
