<svg width="142" height="24" viewBox="0 0 142 24" fill="none" xmlns="http://www.w3.org/2000/svg">
<path d="M14.875 18.3125H6.65625L5.09375 23H0.109375L8.57812 0.25H12.9219L21.4375 23H16.4531L14.875 18.3125ZM7.92188 14.5156H13.6094L10.75 6L7.92188 14.5156ZM32.4219 18.3281C32.4219 17.776 32.1458 17.3438 31.5938 17.0312C31.0521 16.7083 30.1771 16.4219 28.9688 16.1719C24.9479 15.3281 22.9375 13.6198 22.9375 11.0469C22.9375 9.54688 23.5573 8.29688 24.7969 7.29688C26.0469 6.28646 27.6771 5.78125 29.6875 5.78125C31.8333 5.78125 33.5469 6.28646 34.8281 7.29688C36.1198 8.30729 36.7656 9.61979 36.7656 11.2344H32.25C32.25 10.5885 32.0417 10.0573 31.625 9.64062C31.2083 9.21354 30.5573 9 29.6719 9C28.9115 9 28.3229 9.17188 27.9062 9.51562C27.4896 9.85938 27.2812 10.2969 27.2812 10.8281C27.2812 11.3281 27.5156 11.7344 27.9844 12.0469C28.4635 12.349 29.2656 12.6146 30.3906 12.8438C31.5156 13.0625 32.4635 13.3125 33.2344 13.5938C35.6198 14.4688 36.8125 15.9844 36.8125 18.1406C36.8125 19.6823 36.151 20.9323 34.8281 21.8906C33.5052 22.8385 31.7969 23.3125 29.7031 23.3125C28.2865 23.3125 27.026 23.0625 25.9219 22.5625C24.8281 22.0521 23.9688 21.3594 23.3438 20.4844C22.7188 19.599 22.4062 18.6458 22.4062 17.625H26.6875C26.7292 18.4271 27.026 19.0417 27.5781 19.4688C28.1302 19.8958 28.8698 20.1094 29.7969 20.1094C30.6615 20.1094 31.3125 19.9479 31.75 19.625C32.1979 19.2917 32.4219 18.8594 32.4219 18.3281ZM45.1406 1.9375V6.09375H48.0312V9.40625H45.1406V17.8438C45.1406 18.4688 45.2604 18.9167 45.5 19.1875C45.7396 19.4583 46.1979 19.5938 46.875 19.5938C47.375 19.5938 47.8177 19.5573 48.2031 19.4844V22.9062C47.3177 23.1771 46.4062 23.3125 45.4688 23.3125C42.3021 23.3125 40.6875 21.7135 40.625 18.5156V9.40625H38.1562V6.09375H40.625V1.9375H45.1406ZM60.0469 10.3281C59.4323 10.2448 58.8906 10.2031 58.4219 10.2031C56.7135 10.2031 55.5938 10.7812 55.0625 11.9375V23H50.5469V6.09375H54.8125L54.9375 8.10938C55.8438 6.55729 57.099 5.78125 58.7031 5.78125C59.2031 5.78125 59.6719 5.84896 60.1094 5.98438L60.0469 10.3281ZM60.9688 14.3906C60.9688 12.7135 61.2917 11.2188 61.9375 9.90625C62.5833 8.59375 63.5104 7.57812 64.7188 6.85938C65.9375 6.14062 67.349 5.78125 68.9531 5.78125C71.2344 5.78125 73.0938 6.47917 74.5312 7.875C75.9792 9.27083 76.7865 11.1667 76.9531 13.5625L76.9844 14.7188C76.9844 17.3125 76.2604 19.3958 74.8125 20.9688C73.3646 22.5312 71.4219 23.3125 68.9844 23.3125C66.5469 23.3125 64.599 22.5312 63.1406 20.9688C61.6927 19.4062 60.9688 17.2812 60.9688 14.5938V14.3906ZM65.4844 14.7188C65.4844 16.3229 65.7865 17.5521 66.3906 18.4062C66.9948 19.25 67.8594 19.6719 68.9844 19.6719C70.0781 19.6719 70.9323 19.2552 71.5469 18.4219C72.1615 17.5781 72.4688 16.2344 72.4688 14.3906C72.4688 12.8177 72.1615 11.599 71.5469 10.7344C70.9323 9.86979 70.0677 9.4375 68.9531 9.4375C67.849 9.4375 66.9948 9.86979 66.3906 10.7344C65.7865 11.5885 65.4844 12.9167 65.4844 14.7188ZM83.9219 6.09375L84.0625 8.04688C85.2708 6.53646 86.8906 5.78125 88.9219 5.78125C90.7135 5.78125 92.0469 6.30729 92.9219 7.35938C93.7969 8.41146 94.2448 9.98438 94.2656 12.0781V23H89.75V12.1875C89.75 11.2292 89.5417 10.5365 89.125 10.1094C88.7083 9.67188 88.0156 9.45312 87.0469 9.45312C85.776 9.45312 84.8229 9.99479 84.1875 11.0781V23H79.6719V6.09375H83.9219ZM107.5 23C107.292 22.5938 107.141 22.0885 107.047 21.4844C105.953 22.7031 104.531 23.3125 102.781 23.3125C101.125 23.3125 99.75 22.8333 98.6562 21.875C97.5729 20.9167 97.0312 19.7083 97.0312 18.25C97.0312 16.4583 97.6927 15.0833 99.0156 14.125C100.349 13.1667 102.271 12.6823 104.781 12.6719H106.859V11.7031C106.859 10.9219 106.656 10.2969 106.25 9.82812C105.854 9.35938 105.224 9.125 104.359 9.125C103.599 9.125 103 9.30729 102.562 9.67188C102.135 10.0365 101.922 10.5365 101.922 11.1719H97.4062C97.4062 10.1927 97.7083 9.28646 98.3125 8.45312C98.9167 7.61979 99.7708 6.96875 100.875 6.5C101.979 6.02083 103.219 5.78125 104.594 5.78125C106.677 5.78125 108.328 6.30729 109.547 7.35938C110.776 8.40104 111.391 9.86979 111.391 11.7656V19.0938C111.401 20.6979 111.625 21.9115 112.062 22.7344V23H107.5ZM103.766 19.8594C104.432 19.8594 105.047 19.7135 105.609 19.4219C106.172 19.1198 106.589 18.7188 106.859 18.2188V15.3125H105.172C102.911 15.3125 101.708 16.0938 101.562 17.6562L101.547 17.9219C101.547 18.4844 101.745 18.9479 102.141 19.3125C102.536 19.6771 103.078 19.8594 103.766 19.8594ZM124.984 21.2812C123.87 22.6354 122.328 23.3125 120.359 23.3125C118.547 23.3125 117.161 22.7917 116.203 21.75C115.255 20.7083 114.771 19.1823 114.75 17.1719V6.09375H119.266V17.0156C119.266 18.776 120.068 19.6562 121.672 19.6562C123.203 19.6562 124.255 19.125 124.828 18.0625V6.09375H129.359V23H125.109L124.984 21.2812ZM138.172 1.9375V6.09375H141.062V9.40625H138.172V17.8438C138.172 18.4688 138.292 18.9167 138.531 19.1875C138.771 19.4583 139.229 19.5938 139.906 19.5938C140.406 19.5938 140.849 19.5573 141.234 19.4844V22.9062C140.349 23.1771 139.438 23.3125 138.5 23.3125C135.333 23.3125 133.719 21.7135 133.656 18.5156V9.40625H131.188V6.09375H133.656V1.9375H138.172Z" fill="#42F98B"/>
</svg>
